<?xml version="1.0" encoding="utf-8" ?>
<svg xmlns="http://www.w3.org/2000/svg" xmlns:xlink="http://www.w3.org/1999/xlink" width="1023" height="1023" fill="white">
	<path transform="scale(2 2)" d="M200.634 116.348C211.366 100.872 236.075 91.6585 254.239 91.4981C275.077 89.5953 298.699 101.079 312.285 116.348C309.955 118.768 307.505 121.091 305.138 123.478C293.358 111.407 277.2 102.018 259.951 101.737C241.433 100.129 218.781 108.278 207.818 123.478C205.685 120.764 203.465 118.34 200.634 116.348Z"/>
	<path transform="scale(2 2)" d="M216.04 130.393C223.611 119.688 237.328 113.884 249.991 112.221L253.127 112.167C272.778 111.981 282.907 116.749 296.795 130.393C294.246 132.794 291.819 135.327 289.368 137.827C283.408 129.224 273.037 124.947 263.345 122.257C247.431 122.171 233.794 123.638 223.405 137.827C220.894 135.412 218.485 132.875 216.04 130.393Z"/>
	<path transform="scale(2 2)" d="M100.834 206.998L86.6352 207.024C66.1057 207.041 66.5451 202.195 66.5372 182.874L66.5206 141.427C66.508 129.81 67.0547 121.985 80.6713 121.033L117.688 121.021C144.657 121.021 147.767 118.176 147.784 148.806L147.779 189.397C147.774 196.608 147.695 203.866 139.095 206.28C133.972 207.718 117.858 207.011 111.937 206.998C109.124 207.284 113.562 222.024 109.859 226.651C106.778 230.501 101.904 227.647 101.107 223.625C100.278 219.446 100.82 211.535 100.834 206.998ZM79.4282 130.987C76.7952 131.629 76.6263 132.186 76.5369 134.808C76.3151 141.32 76.2271 193.749 76.893 195.548C77.8905 198.243 122.107 196.895 135.313 196.896C140.369 195.616 137.792 167.956 137.797 162.138L137.814 144.809C137.816 141.136 138.385 136.24 137.395 132.722C136.551 129.723 115.322 130.985 111.954 130.988L79.4282 130.987Z"/>
	<path transform="scale(2 2)" d="M399.904 206.998C393.642 207.147 374.76 208.078 370.281 205.071C363.985 200.845 364.74 194.42 364.753 187.88L364.758 145.357C364.761 133.878 363.478 122.669 377.965 121.033C381.512 120.746 385.127 121.016 388.684 121.023L424.488 121.02C436.17 121.021 445.481 121.134 445.9 135.287C446.302 148.898 445.942 162.618 445.945 176.24L445.971 188.755C446.004 206.872 439.377 207.134 424.449 207.03L410.105 206.998C410.088 211.698 410.672 221.939 409.999 226.032C409.359 229.931 404.94 232.928 401.633 229.539C399.117 226.961 399.852 222.175 399.862 218.926L399.904 206.998ZM377.965 130.987C375.042 131.775 375.061 133.914 374.889 136.574C374.193 147.336 373.564 187.769 375.502 196.896C387.964 197.107 400.462 196.889 412.927 196.894L426.015 196.926C428.369 196.937 430.842 197.109 433.179 196.896C437.75 196.25 436.118 191.46 436.119 188.031L436.139 147.786C436.141 143.735 436.728 135.975 435.65 132.356C434.855 129.682 415.312 131.001 412.109 130.999C400.734 130.989 389.338 130.829 377.965 130.987Z"/>
	<path transform="scale(2 2)" d="M231.419 145.575C236.004 138.047 244.163 134.034 252.708 132.843C264.059 131.791 274.494 136.21 281.309 145.575C278.87 148.029 276.26 150.338 273.719 152.686C270.532 147.8 266.781 145.115 261.228 143.363C251.66 141.964 244.5 144.458 238.716 152.686C236.58 150.045 233.928 147.851 231.419 145.575Z"/>
	<path transform="scale(2 2)" d="M259.951 195.971C232.907 199.619 226.287 161.957 252.708 156.332C279.693 153.55 285.47 190.091 259.951 195.971ZM254.239 166.285C241.44 169.384 244.749 188.209 258.229 185.858C271.3 181.467 267.174 165.687 254.239 166.285Z"/>
	<path transform="scale(2 2)" d="M251.342 246.05L251.342 206.501L261.228 206.501L261.228 246.05C258.413 246.549 254.3 246.072 251.342 246.05Z"/>
	<path transform="scale(2 2)" d="M304.313 420.53C296.961 420.68 289.575 420.538 282.22 420.536L220.005 420.551C215.549 420.58 210.819 420.941 206.412 420.251C183.291 416.629 187.728 389.902 187.738 373.114L187.732 288.841C187.731 273.47 186.674 255.073 207.818 253.977C211.604 253.538 215.903 253.959 219.745 253.964L284.472 253.965C291.983 253.964 299.972 253.437 307.405 254.527C327.246 257.436 323.947 279.801 323.939 293.947L323.938 379.793C323.938 396.355 327.523 417.732 304.313 420.53ZM207.818 263.738C196.227 265.851 197.792 276.73 197.793 285.585L197.798 372.642L304.313 372.642L314.058 372.642L314.082 285.362C314.124 264.876 312.154 263.714 293.581 263.722L207.818 263.738ZM204.123 382.702C202.017 382.684 199.901 382.621 197.798 382.702L197.769 391.722C197.74 408.804 202.089 410.447 218.057 410.433L236.59 410.412C248.781 410.412 297.747 412.415 306.2 409.554C316.853 404.341 314.055 392.646 314.058 382.702L204.123 382.702Z"/>
	<path transform="scale(2 2)" d="M100.834 287.797C100.884 280.852 98.0572 268.962 105.081 265.746C114.266 265.4 111.139 281.678 111.114 287.797L126.164 287.737C143.46 287.77 138.693 308.149 138.661 320.507L177.242 320.507L177.242 330.505L138.661 330.505L138.666 363.904C138.671 370.219 139.859 377.499 137.808 383.57C133.659 394.928 110.077 390.972 99.6743 390.997C90.3369 391.018 73.0158 394.231 72.8923 380.133C72.7292 361.513 73.0083 342.855 72.9953 324.23L72.9893 306.087C72.999 283.254 81.1407 287.745 100.834 287.797ZM82.823 298.002L82.823 380.761L128.563 380.761L128.563 298.002L82.823 298.002Z"/>
	<path transform="scale(2 2)" d="M399.904 290.167C399.927 282.768 396.984 270.031 404.101 266.77C413.27 266.41 410.132 284.149 410.105 290.167C437.229 296.554 449.991 327.22 431.483 348.953C418.203 364.548 395.548 365.25 380.4 352.028C373.948 345.753 370.83 339.316 369.235 330.505L334.565 330.505C334.519 327.175 334.564 323.838 334.565 320.507L369.235 320.507C372.428 304.247 383.679 293.799 399.904 290.167ZM402.54 300.339C368.225 304.772 373.895 353.884 407.062 350.988C429.931 347.773 438.093 319.025 419.734 305.423C415.068 301.966 408.405 299.559 402.54 300.339Z"/>
	<path transform="scale(2 2)" d="M211.323 290.167C196.847 289.669 212.122 274.636 217.569 271.523C221.19 271.052 224.557 273.988 223.291 277.69C222.507 279.986 213.488 289.108 211.323 290.167Z"/>
	<path transform="scale(2 2)" d="M222.173 301.564C208.484 299.912 225.697 284.425 230.277 282.269C243.571 282.171 229.072 299.432 222.173 301.564Z"/>
	<path transform="scale(2 2)" d="M117.339 314.74C113.244 314.73 96.036 315.375 93.4538 314.162C88.4126 311.794 90.8724 305.571 95.3797 304.435C101.161 304.355 119.587 302.478 121.162 308.043C122.061 311.222 120.466 313.839 117.339 314.74Z"/>
	<path transform="scale(2 2)" d="M111.114 374.763C107.861 374.761 103.22 375.527 100.224 374.301C95.0843 372.197 95.9275 366.014 100.834 364.459C104.336 364.419 109.745 363.712 112.893 365.176C117.662 367.394 115.791 373.605 111.114 374.763Z"/>
	<path transform="scale(2 2)" d="M263.345 402.184C259.205 402.207 249.651 403.007 246.226 401.077C241.317 398.309 243.847 392.344 249.061 391.536C254.528 391.54 260.011 391.425 265.474 391.536C269.485 395.513 269.603 401.203 263.345 402.184Z"/>
</svg>
