<?xml version="1.0" encoding="utf-8" ?>
<svg xmlns="http://www.w3.org/2000/svg" xmlns:xlink="http://www.w3.org/1999/xlink" width="1023" height="1023" fill="white">
	<path transform="scale(2 2)" d="M173.742 137.693L173.726 123.112C173.72 103.283 179.854 86.1094 202.179 83.3431C212.958 81.6212 225.674 87.9982 231.169 97.3032C234.465 102.884 234.43 107.339 240.014 111.597C250.242 119.398 265.565 115.993 271.232 104.308C272.478 101.739 275.469 92.9363 280.467 97.6361C285.539 102.406 277.147 113.458 273.768 116.753C260.813 129.389 236.46 127.994 227.464 111.209C225.074 106.751 223.873 102.267 220.194 98.5474C211.903 90.1663 197.94 90.8942 189.762 99.106C182.958 105.937 183.248 114.317 183.249 123.263L183.265 137.693L201.131 137.623C217.383 137.567 221.35 145.615 228.222 158.166L249.275 196.109C260.366 215.904 258.451 216.032 258.448 237.788L258.458 275.876C255.476 274.453 252.686 273.435 249.465 272.685L249.457 238.191C249.463 215.351 251.226 218.472 240.036 198.755L227.652 176.941C210.496 146.338 218.491 146.798 183.265 146.866L183.265 163.154C207.862 167.528 207.441 203.69 182.614 208.055C151.684 213.494 144.461 167.884 173.742 163.154L173.742 146.866L160.22 146.816C144.933 146.74 144.52 148.861 136.943 162.501L115.452 201.196C104.67 221.151 107.795 221.789 107.799 245.29L107.792 352.337C107.773 370.439 104.619 394.593 129.824 397.966C134.432 398.582 139.434 398.234 144.086 398.236L206.488 398.238C214.201 398.235 222.505 398.867 230.086 397.445C227.478 394.507 224.328 391.97 221.427 389.318L208.022 376.978C199.166 368.972 189.856 362.88 194.683 349.33C196.157 346.387 198.236 343.797 200.089 341.091L226.863 301.971C241.016 281.103 241.073 277.79 266.051 291.964C265.068 294.841 263.727 297.579 262.764 300.485C259.156 298.973 249.663 292.509 246.678 292.64C242.545 292.821 233.537 309.155 230.957 312.828L214.818 336.181C210.291 342.673 198.443 354.333 205.081 361.499C213.213 370.275 224.799 379.519 233.756 387.867L256.168 408.783C272.488 423.79 273.204 423.244 284.175 406.304L322.143 348.776C331.654 334.395 323.056 333.004 311.505 326.225L290.076 313.658C291.031 310.746 291.887 307.797 292.825 304.877C296.06 306.105 299.019 308.027 302.008 309.755L316.36 318.208C326.226 324.13 341.564 330.973 334.849 346.173C333.155 350.006 330.271 353.697 327.953 357.204L314.046 378.07C308.661 386.148 303.194 394.185 297.921 402.336C291.8 411.796 285.754 426.204 273.717 428.071C259.658 430.253 247.876 411.946 237.507 404.404L237.211 404.191C227.747 409.075 217.219 407.357 206.898 407.358L141.534 407.381C136.323 407.38 130.751 407.765 125.625 406.731C109.314 403.441 98.8985 388.461 98.7427 372.256L98.7364 233.353C98.679 206.445 101.718 207.074 113.974 184.621L127.119 160.945C137.063 143.217 137.814 137.673 160.396 137.677L173.742 137.693ZM183.265 172.757C183.429 175.823 184.272 179.814 181.998 182.29C175.039 189.868 173.745 176.978 173.742 172.757C163.729 176.32 162.249 185.791 167.298 194.44C188.5 210.988 202 180.329 183.265 172.757Z"/>
	<path transform="scale(2 2)" d="M301.876 240.758C297.098 231.73 294.622 220.486 293.584 210.372C286.646 142.759 348.054 118.327 405.222 112.602C408.534 112.175 410.702 112.395 412.769 115.322C413.118 122.72 412.405 130.281 411.603 137.627C406.072 188.261 386.075 233.664 331.459 243.789C324.11 245.151 316.621 245.731 309.223 246.832C293.144 271.344 282.485 298.206 275.444 326.543C274.144 331.771 273.305 353.127 263.648 344.942C260.8 341.208 264.219 332.741 265.126 328.617C272.971 292.944 283.243 270.803 301.876 240.758ZM400.923 122.6C351.247 127.662 296.654 150.693 302.896 209.104C303.693 216.558 305.803 223.468 307.579 230.713C314.02 218.172 320.713 205.618 329.387 194.44C328.668 191.611 320.086 157.191 332.818 164.946C335.825 166.778 336.305 180.749 336.919 185.216C342.062 178.964 365.355 153.552 374.26 154.354C384.246 159.594 370.477 166.14 367.014 168.804C359.822 174.337 353.296 180.39 347.429 187.335C352.038 187.457 368.307 186.199 371.309 189.4C372.835 191.028 372.775 194.093 371.121 195.62C369.375 197.232 343.274 196.919 338.523 197.47C331.768 205.304 319.243 226.279 315.516 236.316C336.557 235.491 358.807 227.731 373.279 212.11C392.308 191.57 403.467 151.11 403.226 122.6L400.923 122.6Z"/>
	<path transform="scale(2 2)" d="M141.648 280.436C143.416 274.675 152.379 267.509 156.567 263.034L184.682 233.085C187.703 229.919 191.91 224.357 195.517 222.271C206.493 221.234 200.279 233.593 198.486 238.84C195.841 246.582 192.951 254.269 190.819 262.173C194.885 262.481 198.732 261.593 202.746 261.653C207.916 261.731 211.689 266.27 208.025 270.995C204.739 275.235 200.836 279.114 197.217 283.074L164.302 319.161C161.933 321.76 159.602 324.727 156.866 326.939C153.245 328.229 149.82 326.038 150.401 321.878C151.84 311.575 157.91 296.486 160.395 285.305C153.513 285.239 143.747 288.126 141.648 280.436ZM164.697 304.877L164.697 304.877L164.697 304.877C167.152 303.253 170.536 298.584 172.647 296.247C179.463 288.7 188.206 278.455 195.517 271.723C180.671 272.028 177.807 274.492 182.486 258.746C183.804 254.312 185.026 249.85 186.23 245.384L186.166 245.156C185.058 245.614 159.394 273.425 156.866 276.501C170.203 275.885 173.706 274.238 169.394 288.785C167.812 294.121 166.028 299.478 164.697 304.877Z"/>
	<path transform="scale(2 2)" d="M328.257 270.75C324.808 270.915 319.302 269.516 321.565 264.71C323.659 260.264 332.304 260.688 336.641 259.766C353.182 256.252 368.097 249.643 381.879 239.962C385.416 237.477 391.416 231.956 395.038 230.713C396.472 230.484 398.075 230.098 399.377 230.971C406.476 235.728 394.031 242.843 390.868 245.133C372.365 258.536 351.058 267.983 328.257 270.75Z"/>
	<path transform="scale(2 2)" d="M257.546 370.368C263.809 364.109 271.847 357.79 278.689 351.943L291.124 341.358C293.724 339.188 296.43 336.458 299.529 335.033C302.431 334.826 305.035 336.073 305.296 339.27C305.629 343.362 292.082 352.822 288.624 355.768L268.523 372.838C254.698 384.346 258.197 383.534 244.577 370.368C242.392 368.278 239.137 365.955 239.247 362.612C239.649 350.484 255.956 368.621 257.546 370.368Z"/>
</svg>
