<?xml version="1.0" encoding="utf-8" ?>
<svg xmlns="http://www.w3.org/2000/svg" xmlns:xlink="http://www.w3.org/1999/xlink" width="1023" height="1023" fill="white">
	<path transform="scale(2 2)" d="M192.574 354.752C186.39 348.669 185.858 341.972 183.921 333.879C178.754 312.288 171.181 294.348 157.718 276.465C138.723 251.233 127.381 236.312 124.029 202.099C118.137 141.957 161.687 85.1096 220.075 72.0699C226.546 70.6246 233.041 69.8753 239.636 69.2562C305.658 66.6713 361.734 114.973 369.482 180.465C371.986 201.63 360.206 199.047 359.035 187.083C356.227 158.383 345.227 133.337 324.838 112.728C281.752 69.1787 211.28 69.976 168.092 112.858C128.725 151.946 123.538 211.308 155.74 256.29C158.545 260.208 161.921 263.74 164.862 267.566C178.652 285.508 188.473 305.765 193.979 327.704C198.775 346.811 194.715 349.864 217.91 349.827L240.798 349.804C240.997 344.813 240.809 339.747 240.806 334.748L240.806 303.913C240.817 299.807 240.438 294.379 240.731 290.496C241.081 285.846 246.165 283.102 249.962 286.508C253.333 289.533 251.714 302.344 251.714 306.613L251.71 335.307C251.705 340.131 251.537 344.985 251.708 349.804C265.115 349.965 278.542 349.802 291.951 349.804C293.754 345.861 295.394 341.828 297.136 337.855C291.6 330.177 287.167 321.466 283.379 312.812C261.438 261.195 318.144 229.694 358.875 214.577C368.334 211.066 385.32 201.127 386.772 215.567C389.889 246.562 386.986 292.622 366.332 317.694C351.845 335.281 329.147 337.842 307.911 339.935C305.767 345.779 303.703 351.606 300.648 357.054C304.456 363.68 303.756 370.225 303.764 377.556C303.781 394.016 304.852 405.03 287.02 411.936C285.787 414.633 284.634 417.391 283.244 420.01C264.768 454.827 216.807 448.297 206.167 411.936C187.157 403.518 189.871 389.935 189.769 372.553C189.729 365.875 188.837 360.622 192.574 354.752ZM376.438 220.27C349.702 228.005 307.905 247.791 293.755 273.226C282.857 292.815 294.02 308.885 302.815 326.159C304.572 322.285 309.402 313.496 310.124 309.943C312.215 299.657 304.79 280.549 305.751 275.678C306.334 272.718 310.114 270.796 312.872 272.009C317.847 274.198 319.704 288.719 319.84 293.253C325.321 287.303 330.151 279.243 335.823 272.735C339.3 268.8 352.866 253.336 357.623 253.043C363.035 252.71 365.32 259.233 360.625 263.312C345.346 276.585 319.633 307.589 314.774 328.406C332.15 325.332 349.169 323.659 360.137 307.93C376.862 283.941 377.715 249.098 376.684 220.54L376.438 220.27ZM200.507 360.86C200.323 365.441 200.463 370.082 200.507 374.669C204.493 374.646 211.164 374.133 214.784 374.748C219.037 375.471 220.94 380.982 217.587 383.994C214.713 386.578 204.501 385.474 200.507 385.49C200.321 401.209 207.351 401.537 220.57 401.547L235.293 401.553C249.977 401.555 264.745 401.897 279.415 401.508C289.575 401.238 293.155 395.123 293.146 385.49L264.625 385.49L244.141 385.504C238.648 385.504 229.752 387.653 229.944 379.547C230.132 371.583 248.282 374.653 254.314 374.656L293.146 374.669C293.173 369.118 293.474 364.158 288.401 360.86C278.668 360.672 268.898 360.861 259.162 360.862L200.507 360.86ZM217.722 411.936C225.796 432.204 250.627 438.824 267.088 423.634C270.672 420.341 273.311 416.339 275.341 411.936L217.722 411.936Z"/>
	<path transform="scale(2 2)" d="M231.61 134.554C231.703 128.586 229.868 118.439 236.808 115.731C259.621 114.877 260.583 112.095 261.427 134.554C266.294 135.725 270.422 137.591 274.563 140.388C278.752 135.933 284.736 127.185 290.913 131.463C293.805 133.466 304.975 143.665 305.514 147.69C305.893 150.525 297.235 158.337 295.314 161.062L295.084 161.393C297.123 165.712 299.904 170.304 300.648 175.062C307.001 175.156 319.156 172.192 319.766 181.369C320.042 185.519 320.286 196.87 319.531 200.61C318.219 207.106 305.196 204.769 300.648 204.751C299.434 209.783 297.576 213.939 295.084 218.436C297.277 221.01 305.193 227.146 305.399 230.273C305.726 235.243 290.175 249.065 287.164 249.09C282.623 249.127 277.59 242.281 274.563 239.128C270.226 241.066 265.956 242.796 261.427 244.237C261.29 250.627 264.199 261.864 255.575 263.502L240.845 263.602C228.545 263.769 231.575 254.345 231.61 244.237C226.854 242.846 222.378 240.79 217.722 239.128C212.143 243.262 206.787 253.264 199.37 246.544C183.401 232.075 182.72 232.336 197.131 218.436C194.66 213.945 192.65 209.648 191.108 204.751C184.023 204.689 174.075 207.282 173.765 197.43C173.098 176.195 171.018 174.467 191.108 175.062C192.198 170.177 194.309 165.512 197.131 161.393C191.123 156.208 182.405 150.212 188.805 142.799C203.467 125.816 203.951 126.06 217.722 140.388C222.204 137.823 226.508 135.575 231.61 134.554ZM242.751 126.763C243.587 149.613 241.943 140.732 227.754 147.427C209.116 156.222 220.787 155.399 204.622 143.164C202.394 144.713 200.982 146.181 199.412 148.388L199.694 148.71C213.422 164.267 211.305 155.182 203.873 171.361C196.671 187.041 206.763 186.037 184.654 185.981C184.652 188.498 184.616 191.021 184.654 193.537C201.351 195.396 197.05 188.176 202.694 204.655C209.107 223.38 216.149 216.009 199.412 231.665L204.622 236.304C220.466 220.85 213.367 226.214 230.318 232.335C245.772 237.917 242.847 233.924 242.751 252.513C244.279 252.519 245.808 252.53 247.337 252.513L250.252 252.513C250.154 236.05 246.988 237.516 261.605 232.372C277.686 226.713 272.659 220.794 287.02 236.304C288.559 234.443 289.91 232.98 291.951 231.665C279.563 216.62 279.234 226.168 287.527 209.336C295.844 192.457 285.702 193.398 308.683 193.537L308.683 185.981C289.131 186.079 294.389 188.743 289.226 173.929C282.807 155.511 276.235 164.828 291.951 148.388C290.362 146.572 288.747 144.851 287.02 143.164C272.908 158.187 279.142 153.547 264.503 147.109C249.116 140.342 250.809 148.926 250.252 126.763L242.751 126.763Z"/>
	<path transform="scale(2 2)" d="M249.812 223.236C203.891 226.819 197.922 160.963 242.751 155.592C272.06 152.582 291.352 187.195 273.218 209.9C267.212 217.419 259.388 222.113 249.812 223.236ZM245.15 166.352C214.808 168.966 215.236 212.789 247.337 212.518C278.576 208.562 273.527 165.402 245.15 166.352Z"/>
</svg>
