<?xml version="1.0" encoding="utf-8" ?>
<svg xmlns="http://www.w3.org/2000/svg" xmlns:xlink="http://www.w3.org/1999/xlink" width="1023" height="1023" fill="white">
	<path transform="scale(2 2)" d="M109.287 215.287C106.739 215.165 103.357 214.792 102.699 211.799C101.627 206.927 102.661 194.692 102.384 188.926C101.882 178.451 98.1348 179.621 91.3631 173.447C54.6572 139.984 77.1314 74.7004 127.668 73.0693C132.765 71.8763 139.467 73.1353 144.463 74.3016C191.674 85.3234 203.392 145.735 167.973 175.717C166.055 177.341 161.158 180.311 160.61 182.956C159.204 189.75 159.809 196.88 159.83 203.768C159.849 209.589 160.956 215.015 153.247 215.287C153.529 226.328 146.804 234.597 136.055 237.23L136.036 256.92C136.029 282.491 141.54 281.729 163.087 281.71L185.459 281.693C189.601 281.667 207.634 281.025 198.864 290.202C196.415 291.765 192.822 291.439 190.011 291.449L165.253 291.442C150.054 291.478 132.089 293.225 127.097 273.959C125.692 268.537 126.245 262.402 126.248 256.832L126.265 237.23C115.656 233.923 109.826 226.652 109.287 215.287ZM128.375 82.8067C87.04 84.205 67.3085 138.082 98.0968 166.221C106.667 174.054 110.472 173.977 112.248 187.648L134.717 187.648L150.179 187.648C150.948 174.169 155.239 174.386 163.302 166.814C182.214 149.052 184.616 118.592 167.186 98.876C159.633 90.3327 140.031 79.3433 128.375 82.8067ZM112.248 197.425L112.248 205.224C124.884 205.234 137.546 205.417 150.179 205.224L150.179 197.425L112.248 197.425ZM119.249 215.287C120.343 226.321 130.983 231.741 140.052 224.121C142.473 221.297 143.461 218.997 143.72 215.287C135.574 215.285 127.389 215.096 119.249 215.287Z"/>
	<path transform="scale(2 2)" d="M369.878 221.369C359.107 221.046 348.747 214.929 346.978 203.478C346.28 198.963 346.738 193.904 346.738 189.31L346.73 130.82C346.721 115.496 346.13 99.6498 366.847 96.7382C378.41 96.5328 410.545 95.1988 421.033 97.0393C440.991 100.542 439.246 119.421 439.245 134.33L439.255 190.239C439.264 209.373 437.088 219.058 415.819 221.369C415.748 243.052 420.507 243.821 399.303 243.611L399.316 259.484C399.338 289.468 387.408 291.47 360.85 291.429L333.485 291.441L316.649 291.434C313.915 291.428 310.868 291.671 308.172 291.268C303.338 290.547 302.252 283.361 306.897 281.564C309.923 280.394 317.491 281.067 320.975 281.091L356.544 281.094C366.357 281.098 384.032 284.353 388.172 272.131C390.059 266.562 389.248 250.047 389.237 243.611C375.032 243.353 369.883 247.778 369.87 233.415L369.878 221.369ZM368.626 106.744C355.273 108.571 356.682 120.193 356.759 130.795L417.875 130.795L429.222 130.795C429.362 103.741 424.373 106.739 401.723 106.73C390.997 106.726 379.225 105.987 368.626 106.744ZM368.626 140.881L356.759 140.881L356.751 181.581C356.751 187.15 356.196 196.49 357.105 201.74C359.306 214.444 375.693 211.171 384.968 211.178C395.302 211.185 405.647 211.282 415.98 211.176C431.513 211.015 429.25 198.093 429.246 186.545L429.222 156.125L429.222 140.881L398.006 140.881C397.985 145.442 397.872 150.024 398.006 154.583C412.075 160.254 412.561 178.769 398.862 183.937C379.074 191.402 367.633 162.504 388.162 154.583L388.162 140.881C381.653 140.797 375.136 140.867 368.626 140.881ZM392.399 163.797C385.342 165.603 385.986 175.766 393.617 175.506C400.456 173.408 400.384 163.696 392.399 163.797ZM380.865 221.369L380.066 221.528C379.195 223.033 379.601 231.515 379.667 233.703L404.812 233.703L405.466 233.584C406.276 231.741 405.767 223.907 405.744 221.369L380.865 221.369Z"/>
	<path transform="scale(2 2)" d="M98.1484 115.513C104.719 106.04 116.559 101.421 127.668 100.254C142.127 98.8563 156.274 105.137 165.253 116.53C163.157 118.92 160.618 121.07 158.351 123.313C153.287 116.524 145.003 112.147 136.806 110.532C124.341 108.453 113.942 113.803 105.091 122.262C102.697 120.112 100.195 118.004 98.1484 115.513Z"/>
	<path transform="scale(2 2)" d="M112.248 128.039C116.146 122.29 121.625 119.866 128.375 118.828C136.314 117.664 145.915 121.032 150.179 128.039C148.345 130.444 146.001 132.373 143.72 134.336C141.117 131.804 138.243 129.995 134.717 129.051C128.368 127.956 123.218 130.032 118.484 134.336C116.539 132.111 114.378 130.085 112.248 128.039Z"/>
	<path transform="scale(2 2)" d="M132.285 156.125C120.696 155.316 118.844 142.478 129.65 138.782C140.419 137.77 142.878 151.311 132.285 156.125Z"/>
	<path transform="scale(2 2)" d="M251.397 321.474C236.223 321.701 222.207 312.015 217.305 297.491C212.106 282.087 218.541 266.399 227.743 254.021C232.045 248.236 245.666 232.926 252.181 230.775C255.95 231.14 259.541 235.757 262.03 238.431C273.331 250.567 288.197 269.225 287.477 286.636C286.678 305.956 271.171 322.307 251.397 321.474ZM252.181 242.689C240.57 253.022 226.375 268.38 225.479 284.623C224.69 298.946 235.735 311.23 250.124 311.786L251.397 311.824C269.296 311.519 281.902 294.538 276.343 277.151C273.708 268.912 259.054 247.344 252.181 242.689Z"/>
	<path transform="scale(2 2)" d="M90.8877 345.977C104.192 331.908 120.954 324.38 140.052 322.232C166.26 320.766 185.082 328.878 203.143 346.752C200.848 349.028 198.552 351.284 196.15 353.448C184.298 340.824 170.796 335.292 154.369 332.02C133.597 332.911 112.082 333.993 98.1484 353.448C95.7701 350.882 93.404 348.419 90.8877 345.977Z"/>
	<path transform="scale(2 2)" d="M306.97 358.967C306.98 352.221 304.14 339.85 311.381 337.253C319.758 337.207 317.254 350.1 317.22 355.496C322.801 354.456 327.921 354.165 333.485 355.496C333.509 350.958 331.011 336.102 339.084 337.3C341.095 337.598 342.256 339.01 343.404 340.55C343.477 346.687 343.417 352.83 343.404 358.967C356.196 364.324 364.25 377.873 365.913 391.229C369.073 391.201 374.074 390.349 376.625 392.439C378.769 394.197 379.096 397.465 377.122 399.482C374.491 402.172 369.384 401.267 365.913 401.259C364.611 409.424 361.724 417.051 355.907 423.088C349.506 434.752 327.194 438.87 315.201 435.944C279.735 427.29 273.06 378.91 306.97 358.967ZM322.132 364.836C294.526 368.578 284.452 404.019 307.312 421.207C321.946 432.21 344.052 427.025 352.741 411.075C354.263 407.892 355.275 404.731 355.907 401.259L331.628 401.278C327.87 401.28 323.709 401.631 319.988 401.184C315.882 400.691 313.733 395.372 317.089 392.497C320.191 389.839 327.367 391.229 331.125 391.229L355.907 391.229C352.967 374.737 339.005 363.35 322.132 364.836Z"/>
	<path transform="scale(2 2)" d="M105.091 359.661C114.693 349.039 127.393 343.007 141.48 341.237C159.608 340.615 176.813 346.29 188.863 360.597C186.552 362.976 184.135 365.252 181.742 367.549C174.124 357.895 164.774 354.13 153.247 351.325C138.687 349.6 120.906 354.166 112.248 366.785C109.633 364.622 107.318 362.217 105.091 359.661Z"/>
	<path transform="scale(2 2)" d="M118.484 373.431C125.207 365.883 133.672 361.558 143.72 360.597C156.255 359.456 166.816 365.396 175.048 374.599C172.452 376.741 170.024 379.161 167.555 381.451C163.448 375.689 158.205 372.337 151.291 370.849C141.311 369.208 132.201 372.86 125.359 380.332C122.919 378.213 120.665 375.813 118.484 373.431Z"/>
	<path transform="scale(2 2)" d="M132.285 386.596C135.917 383.047 139.321 380.998 144.405 380.332C151.537 379.953 156.268 382.832 161.052 388.025C158.714 390.103 156.416 392.155 154.369 394.529C152.834 392.564 151.735 391.785 149.303 391.229C144.98 389.451 141.842 389.892 138.838 393.757C136.658 391.35 134.29 389.165 132.285 386.596Z"/>
	<path transform="scale(2 2)" d="M149.303 438.738C125.253 440.224 121.92 407.343 145.213 404.595C165.75 402.838 172.089 432.887 149.303 438.738ZM145.213 414.552C135.223 418.048 138.618 429.904 148.025 428.746C156.82 425.884 154.954 413.441 145.213 414.552Z"/>
</svg>
