<?xml version="1.0" encoding="utf-8" ?>
<svg xmlns="http://www.w3.org/2000/svg" xmlns:xlink="http://www.w3.org/1999/xlink" width="1023" height="1023" fill="white">
	<path transform="scale(2 2)" d="M265.453 120.516C260.725 120.618 255.99 120.46 251.26 120.576C185.344 122.199 123.988 172.013 110.68 236.943C109.906 240.718 110.026 249.324 105.237 250.202C95.3746 252.011 100.46 236.495 101.516 232.191C118.711 162.089 176.898 116.596 247.553 110.453C254.447 110.442 261.355 110.318 268.236 110.795C331.523 115.179 387.419 160.222 407.309 220.208C409.778 227.654 418.318 247.257 408.106 250.412C400.594 248.258 401.889 237.802 399.817 230.183C382.955 168.181 328.684 126.083 265.453 120.516Z"/>
	<path transform="scale(2 2)" d="M138.969 250.412C131.386 248.489 133.761 242.809 135.316 236.8C149.367 182.498 195.252 148.02 249.867 143.257C308.862 142.43 362.459 178.265 377.19 236.836C377.939 239.814 379.079 243.561 378.869 246.611C378.56 251.094 372.353 253.329 370.075 249.212C368.849 246.996 367.573 239.567 366.709 236.547C363.669 225.919 359.309 216.772 353.331 207.503C349.934 209.45 339.262 217.42 335.939 216.765C333.396 216.263 331.514 213.362 332.066 210.835C332.833 207.327 344.714 201.06 348.045 198.887C340.167 187.631 325.261 176.258 313.998 168.966C312.001 172.991 309.17 183.546 304.995 185.52C301.03 187.395 297.753 183.315 298.484 179.597C299.163 176.141 303.288 168.189 304.863 164.347C293.925 158.073 273.503 153.154 260.812 153.723C260.788 157.644 261.49 168.379 260.812 171.669C248.308 181.285 251.094 159.442 251.116 153.723C235.855 153.278 220.833 158.287 207.034 164.347C208.93 168.158 215.224 177.784 214.616 181.699C214.04 185.407 209.028 186.86 206.491 184.082C203.961 181.312 200.353 172.721 198.239 168.966C185.636 175.945 175.052 186.69 165.706 197.463C168.702 200.091 179.876 207.872 180.56 210.937C181.352 214.48 177.064 217.817 173.804 216.324C171.677 215.35 169.78 213.31 167.939 211.858L159.626 205.377C154.536 214.434 149.975 223.447 146.798 233.374C144.741 239.798 145.472 248.205 138.969 250.412Z"/>
	<path transform="scale(2 2)" d="M227.909 266.724C234.419 229.222 254.04 205.525 293.946 201.351C296.12 201.135 297.67 201.133 299.41 202.633C304.286 206.835 296.736 212.681 294.111 215.63C285.726 225.048 279.177 235.735 275.168 247.734C270.946 260.373 275.197 257.87 259.581 257.856L239.635 257.839C238.967 260.804 238.467 263.685 238.31 266.724L395.486 266.729C405.8 266.723 421.819 263.691 422.348 278.822C422.613 286.405 422.339 294.093 422.341 301.687L422.358 374.367C422.372 400.703 422.976 401.249 399.075 401.221L281.375 401.202L119.683 401.202C106.974 401.208 89.8481 405.602 89.5146 388.574C89.3579 380.573 89.5234 372.539 89.5224 364.533L89.5022 289.806C89.4969 265.077 91.7956 266.7 113.465 266.714L227.909 266.724ZM282.625 213.516C266.4 218.257 253.345 227.37 245.153 242.447C244.741 243.206 241.584 247.932 243.437 248.032L264.55 248.032C268.392 237.045 272.664 226.242 280.201 217.206C280.913 216.352 282.877 214.51 283.005 213.509L282.625 213.516ZM99.2573 276.526C99.0372 280.791 99.2467 285.121 99.252 289.395L99.2573 391.266L402.193 391.28C405.607 391.286 409.186 391.543 412.578 391.266C412.999 378.715 412.578 365.99 412.578 353.422L412.578 276.526L111.014 276.514C107.108 276.509 103.157 276.374 99.2573 276.526Z"/>
	<path transform="scale(2 2)" d="M238.922 343.026C234.573 342.878 208.975 346.244 213.655 335.461C215.297 331.675 221.494 323.389 224.129 319.399L239.493 296.256C242.784 291.344 245.324 284.976 251.116 282.763C259.391 282.195 257.694 292.769 257.695 297.904L257.684 316.976C262.354 316.959 280.598 314.514 281.425 321.271C281.86 324.828 269.017 342.039 266.36 346.263L254.288 365.825C251.773 369.881 248.727 377.694 243.437 378.409C236.178 376.498 238.215 370.051 238.454 364.135C238.735 357.163 239.289 349.987 238.922 343.026ZM247.553 302.684C241.501 310.367 232.027 324.629 227.075 333.089C253.99 333.008 247.825 330.238 249.037 352.437C248.982 353.251 248.773 354.354 249.096 355.102C251.267 352.904 264.15 332.139 267.208 327.247C259.493 327.283 247.194 330.364 247.455 320.656C247.599 315.269 248.206 307.988 247.553 302.684Z"/>
	<path transform="scale(2 2)" d="M352.382 336.449C350.514 336.409 348.231 335.638 347.536 333.719C346.76 331.576 346.839 306.476 347.196 302.995C347.448 300.532 349.061 299.282 351.333 298.542C353.391 298.576 355.554 299.091 356.506 301.161C357.288 302.862 356.971 332.819 356.296 334.052C355.521 335.469 353.843 336.069 352.382 336.449Z"/>
	<path transform="scale(2 2)" d="M163.885 319.716C159.797 319.893 139.424 320.132 136.591 319.358C131.925 318.084 132.001 311.552 136.979 309.185C141.733 308.927 160.619 308.624 164.087 309.532C169.324 310.903 167.879 317.74 163.885 319.716Z"/>
	<path transform="scale(2 2)" d="M375.496 321.427C384.925 336.481 376.147 356.722 359.24 361.632C335.968 368.392 315.533 342.788 327.41 321.983C329.57 318.197 333.169 313.513 337.55 312.316C342.191 312.799 342.806 315.529 342.773 319.716C328.492 329.528 332.012 349.27 348.39 352.371C364.193 355.363 375.947 336.622 365.387 324.34C363.475 322.116 359.93 319.406 360.663 316.063C362.892 305.89 373.11 317.834 375.496 321.427Z"/>
	<path transform="scale(2 2)" d="M163.885 339.537C160.253 339.702 138.19 339.981 136.047 339.173C131.613 337.499 132.273 331.182 136.979 329.218C140.584 329.091 162.131 328.745 164.259 329.544C169.078 331.355 168.235 337.805 163.885 339.537Z"/>
</svg>
