<?xml version="1.0" encoding="utf-8" ?>
<svg xmlns="http://www.w3.org/2000/svg" xmlns:xlink="http://www.w3.org/1999/xlink" width="1023" height="1023" fill="white">
	<path transform="scale(2 2)" d="M135.575 133.765C135.507 120.883 134.668 108.791 150.115 105.795C168.002 104.747 168.188 121.004 168.165 133.765L239.785 133.765C239.763 126.067 238.514 117.098 244.316 111.054C250.569 104.54 261.087 104.313 267.533 110.707C273.585 116.71 272.296 126.007 272.263 133.765L344.286 133.765C344.244 125.683 342.993 116.958 349.089 110.602C355.114 104.319 365.733 104.831 371.77 110.829C377.848 116.867 376.522 125.972 376.49 133.765L403.927 133.752C427.783 133.752 431.617 134.841 431.557 157.906L431.551 375.65C431.557 387.001 434.698 403.842 418.812 405.505C411.177 405.752 403.511 405.507 395.872 405.507L107.17 405.518C84.5607 405.524 80.4628 406.241 80.4695 383.906L80.4222 149.235C80.4138 132.146 95.0643 133.74 107.388 133.745L135.575 133.765ZM150.115 114.295C141.658 117.206 143.89 126.606 143.941 133.765L153.875 133.765L160.318 133.765C160.358 125.311 161.75 113.628 150.115 114.295ZM255.487 114.295C245.878 116.365 248.294 126.234 248.261 133.765C251.217 133.719 254.169 133.664 257.125 133.765C259.34 133.727 261.549 133.682 263.763 133.765C264.069 126.514 266.193 114.22 255.487 114.295ZM359.75 114.295C350.103 116.473 352.816 126.231 352.722 133.765L361.375 133.765L368.238 133.765C368.283 126.925 370.231 113.836 359.75 114.295ZM359.75 142.24C357.407 142.202 355.065 142.143 352.722 142.24C352.646 149.46 351.443 158.587 361.375 158.182C369.33 156.147 368.248 148.899 368.238 142.24C365.393 142.127 362.595 142.124 359.75 142.24ZM93.0304 142.24C86.2986 146.3 88.9499 155.133 88.9624 162.684L88.9724 194.738L411.982 194.751C415.682 194.755 419.558 195.017 423.236 194.738L423.244 163.921C423.239 144.943 427.241 142.108 407.346 142.24L376.49 142.24C376.518 149.246 377.18 156.413 371.822 161.805C365.703 167.962 355.293 168.277 349.145 162.022C343.624 156.406 344.243 149.529 344.286 142.24L272.263 142.24C272.299 149.208 273.117 156.227 267.767 161.638C261.438 168.041 250.953 168.224 244.615 161.774C239.445 156.514 239.89 149.07 239.785 142.24L168.165 142.24C168.182 149.487 168.717 156.341 163.159 161.858C156.996 167.975 146.219 167.966 140.202 161.649C135.063 156.252 135.514 149.152 135.575 142.24L106.939 142.228C102.355 142.225 97.5859 141.909 93.0304 142.24ZM143.941 142.24C143.757 146.366 142.989 152.128 145.921 155.47C148.915 158.883 153.988 158.503 157.363 155.955C160.595 151.888 159.495 147.074 160.318 142.24L143.941 142.24ZM248.261 142.24C248.286 146.536 247.405 152.862 250.838 156.099C253.912 158.998 258.197 158.648 261.248 155.955C264.77 152.133 263.798 147.06 263.763 142.24L248.261 142.24ZM98.8087 203.28L88.9724 203.28L88.9707 368.281C88.9711 371.625 88.1084 393.746 89.9022 395.605C92.0042 397.783 101.619 397.138 104.745 397.136L413.312 397.127C419.012 397.208 422.745 396.868 423.142 390.502C423.582 383.435 423.238 376.163 423.238 369.075L423.236 203.28L98.8087 203.28Z"/>
	<path transform="scale(2 2)" d="M263.763 379.276C259.976 379.418 258.286 377.232 258.235 373.653C258.079 362.881 258.298 352.058 258.298 341.281L258.278 240.387C258.275 234.662 256.153 224.54 261.248 221.535C269.36 220.486 266.752 232.301 266.751 237.169L266.734 341.05C266.727 348.09 269.455 376.319 263.763 379.276Z"/>
	<path transform="scale(2 2)" d="M380.624 296.451L312.541 296.482C297.609 296.57 298.388 296.365 298.378 282.818L298.372 248.868C298.355 242.332 295.944 233.895 303.713 233.041L370.806 233.021C385.203 232.988 386.105 231.273 386.074 247.154L386.074 281.795C386.081 287.15 388.075 295.688 380.624 296.451ZM306.788 241.457L306.788 287.997L377.732 287.997L377.732 241.457L306.788 241.457Z"/>
	<path transform="scale(2 2)" d="M213.901 263.688C211.146 260.107 198.815 251.021 207.253 247.024C211.885 246.767 223.464 260.182 225.74 263.688C225.83 268.261 227.535 285.667 221.887 285.746C215.232 285.839 217.009 275.352 217.048 271.294C207.871 272.926 150.793 282.934 144.669 285.932C142.135 287.172 138.545 291.85 136.498 294.061C134.919 295.617 123.19 309.346 122.128 298.851C121.815 295.76 137.715 279.367 140.597 277.877C142.754 276.762 208.347 264.053 213.901 263.688Z"/>
	<path transform="scale(2 2)" d="M358.582 268.204L338.711 268.212C334.857 268.241 330.873 268.492 327.04 268.241C320.767 267.831 320.299 260.672 326.053 259.583C331.658 259.409 337.311 259.619 342.921 259.606C346.733 259.598 360.75 257.713 362.349 262.469C363.346 265.431 361.118 267.389 358.582 268.204Z"/>
	<path transform="scale(2 2)" d="M203.733 353.97L203.72 316.928C203.719 310.714 203.323 304.2 203.825 298.016C204.109 294.513 205.167 294.266 208.482 294.061L222.64 294.045C239.361 294.043 234.308 297.937 234.297 315.003L234.307 353.97C236.873 354.065 239.451 353.993 242.019 353.97C244.186 355.796 245.771 359.069 243.33 361.375C240.605 363.948 228.128 362.639 224.37 362.639L105.69 362.633L105.69 353.97L117.061 353.97C117.207 349.283 117.082 344.564 117.061 339.875C116.908 322.806 117.314 327.428 135.909 327.505C148.397 327.557 146.925 327.078 146.929 338.934L146.918 353.97C151.369 353.831 155.863 353.965 160.318 353.97L160.309 327.743C160.309 323.607 159.097 313.5 161.543 310.02C162.884 309.483 188.284 308.696 189.756 310.603C191.393 312.721 190.537 325.112 190.532 328.013L190.524 353.97L203.733 353.97ZM213.901 302.625L212.833 302.75C211.711 304.521 212.286 348.115 212.31 353.97L224.813 353.97L225.451 353.954C226.718 351.939 225.733 343.371 225.733 340.57L225.74 302.625L213.901 302.625ZM168.827 318.189L168.827 353.97L181.944 353.97L181.944 318.189C177.577 318.188 173.193 318.1 168.827 318.189ZM125.628 336.258L125.628 353.97L138.512 353.97L138.512 336.258L125.628 336.258Z"/>
	<path transform="scale(2 2)" d="M324.464 376.296C320.513 376.225 319.819 374.319 319.661 370.9C319.419 365.699 319.266 327.899 319.935 325.888C320.41 324.458 321.462 323.866 322.754 323.25C324.911 323.277 326.716 323.761 327.67 325.955C328.475 327.807 328.585 371.841 327.748 373.704C327.064 375.227 325.956 375.733 324.464 376.296Z"/>
	<path transform="scale(2 2)" d="M358.582 358.783L359.021 358.205C362.129 354.085 390.241 325.125 393.938 324.053C399.443 324.422 399.896 328.434 396.623 332.031C388.501 340.957 378.376 350.477 369.676 358.85C357.316 370.747 360.084 373.398 347.229 360.091C344.87 357.731 338.365 350.464 345.955 349.428C349.695 348.917 355.073 356.26 358.582 358.783Z"/>
</svg>
