<?xml version="1.0" encoding="utf-8" ?>
<svg xmlns="http://www.w3.org/2000/svg" xmlns:xlink="http://www.w3.org/1999/xlink" width="1023" height="1023" fill="white">
	<path transform="scale(2 2)" d="M177.473 195.27C177.335 134.198 215.485 81.4909 276.692 68.883C282.654 67.6549 288.675 67.0589 294.729 66.4981C413.96 61.2586 473.402 214.213 375.197 288.06C375.205 307.541 377.193 324.288 366.315 341.789C348.736 370.073 326.829 370.259 298.059 370.279C272.479 370.297 263.47 370.694 241.167 356.755C243.892 354.007 246.376 350.933 248.93 348.021C267.246 360.573 274.195 359.507 296.137 359.477L316.594 359.563C340.697 359.652 361.711 338.997 364.063 315.434C364.704 309.014 364.313 302.249 364.302 295.783C360.101 297.511 356.226 300.067 352.068 301.941C324.327 314.446 314.043 310.982 287.5 312.762C284.072 311.088 268.157 308.211 262.192 306.413C259.256 318.059 253.227 329.872 244.994 338.683C237.341 346.873 233.786 347.748 227.442 358.853C216.579 377.868 220.579 389.926 219.648 410.211C219.146 421.152 211.789 424.402 201.855 423.84C195.7 452.31 156.185 453.049 149.796 423.84C134.103 426.095 133.172 413.423 133.208 401.876L133.261 384.882C133.202 371.022 119.75 352.047 110.454 342.788C95.1522 327.547 87.3707 305.233 87.3948 283.854C87.4513 233.7 127.712 195.082 177.473 195.27ZM294.729 77.2484C237.858 82.6629 193.384 123.333 188.599 181.672C188.203 186.501 188.238 191.329 188.251 196.17C231.142 200.362 262.777 239.65 265.036 281.74C265.288 286.438 264.722 291.125 264.97 295.783C278.349 300.56 292.615 302.851 306.836 302.245C340.255 299.074 367.126 286.857 389.118 260.19C424.372 217.442 420.642 153.759 383.671 113.462C359.512 87.13 329.421 76.8289 294.729 77.2484ZM169.236 206.235C125.297 211.117 93.5729 248.569 98.6065 293.167C100.258 307.797 106.611 323.338 116.87 334.057C121.432 338.824 126.106 342.256 129.871 347.861C136.094 357.124 139.03 366.907 143.778 376.711L183.625 376.711L209.868 376.711C212.913 357.689 220.276 346.957 233.793 334.795C253.908 316.698 258.874 284.271 250.319 259.398C238.121 223.935 205.692 204.285 169.236 206.235ZM183.625 387.434L143.778 387.434C143.77 389.895 143.687 392.381 143.778 394.84L170.625 394.84L208.924 394.84L208.924 387.434L183.625 387.434ZM145.145 405.829C141.984 406.28 144.395 411.15 145.145 412.985C165.698 413.403 186.308 412.808 206.87 412.985C209.551 411.743 208.854 408.308 208.924 405.829L145.145 405.829ZM160.903 423.84C162.753 434.869 177.858 436.803 187.437 430.242C188.664 428.181 190.122 426.069 191.018 423.84L160.903 423.84Z"/>
	<path transform="scale(2 2)" d="M290.683 207.024L271.294 203.546C252.934 200.331 251.306 199.749 262.251 186.657L306.523 134.246C310.099 129.941 314.859 121.716 320.154 119.764C331.18 119.77 323.749 136.734 322.231 142.924L314.832 173.229C323.937 175.15 335.747 176.266 344.305 178.719C356.14 182.113 340.804 195.304 336.84 200.279L296.32 251.281C293.555 254.74 290.932 260.146 286.151 260.761C276.293 258.632 282.838 244.577 284.444 237.223C286.638 227.185 288.713 217.109 290.683 207.024ZM309.644 147.704C297.603 161.279 282.151 178.314 271.305 192.847L290.87 195.83C295.007 196.449 300.245 195.874 302.747 199.819C302.919 204.475 301.625 209.353 300.68 213.893L296.539 232.898L296.617 233.324C298.014 232.386 303.588 224.559 305.113 222.624L321.239 202.403C325.063 197.555 328.756 192.623 332.661 187.837L314.682 184.493C300.056 181.667 301.478 181.158 305.246 166.041C305.965 163.158 309.924 149.873 309.644 147.704Z"/>
	<path transform="scale(2 2)" d="M153.328 311.876C141.075 302.114 133.415 293.731 132.798 276.517C131.958 253.064 150.196 232.392 173.91 231.75C177.813 231.111 182.497 231.868 186.301 232.774C224.295 241.817 231.805 291.587 198.276 311.876C198.422 325.078 193.9 336.59 179.264 338.743C161.474 340.283 153.11 328.436 153.328 311.876ZM173.91 242.344C144.334 245.631 132.551 282.089 155.187 299.606C158.656 302.291 163.438 303.278 164.085 308.231C164.895 314.429 162.45 321.094 168.253 325.674C171.32 328.094 175.481 329.058 179.264 327.973C192.813 322.135 184.1 312.319 188.147 305.697C189.568 303.371 194.941 301.212 197.313 299.362C225.414 277.438 197.414 236.726 173.91 242.344Z"/>
</svg>
