<?xml version="1.0" encoding="utf-8" ?>
<svg xmlns="http://www.w3.org/2000/svg" xmlns:xlink="http://www.w3.org/1999/xlink" width="1023" height="1023" fill="white">
	<path transform="scale(2 2)" d="M170.51 334.349C205.609 384.33 269.3 406.242 328.009 388.622C400.811 366.772 443.395 289.788 421.29 216.75C399.201 143.768 320.342 99.8533 246.886 122.24C207.088 134.369 170.923 164.847 155.753 204.131C154.254 208.015 151.362 220.861 144.217 215.395C140.488 212.542 144.343 205.275 145.623 202.099C168.705 144.81 219.049 110.824 279.407 106.517C337.14 106.11 387.621 131.104 417.426 182.472C458.807 253.79 433.311 343.98 362.216 384.934C291.519 425.659 197.438 402.573 156.561 331.35C157.152 340.634 156.573 350.177 156.571 359.489C156.568 372.748 159.069 389.931 139.661 390.437C131.091 390.66 122.465 390.461 113.889 390.453C101.083 390.441 85.8869 391.758 85.7385 373.962L85.7261 326.809C85.7315 308.068 81.9869 292.632 107.334 292.624L117.294 292.637C117.53 287.801 116.121 266.944 118.638 264.13C121.283 261.174 126.608 262.724 127.254 266.587C127.752 269.56 127.488 272.862 127.487 275.877L127.464 292.637C138.348 292.601 152.446 290.502 156.197 304.157C160.066 318.235 161.852 321.542 170.51 334.349ZM101.32 302.775C99.204 303.403 97.5366 304.402 95.9715 305.96L95.9524 367.152C95.9417 372.507 94.3766 379.189 101.442 380.092C109.122 381.074 133.988 380.913 141.653 380.259C145.451 378.711 146.182 376.591 146.335 372.803C147.101 353.783 147.334 327.378 146.243 308.451C145.743 299.79 129.726 302.763 123.24 302.761L101.32 302.775Z"/>
	<path transform="scale(2 2)" d="M174.295 260.609C174.083 269.646 175.852 279.509 178.602 288.101C179.711 291.566 181.849 295.838 182.221 299.376C182.401 301.082 172.605 321.085 165.354 277.107C153.279 203.883 207.718 140.187 280.517 135.283C287.977 135.222 295.379 135.286 302.79 136.229C378.756 145.902 426.335 223.445 401.924 295.079C400.861 298.199 399.292 305.052 394.914 304.935C385.046 304.673 392.083 292.22 393.394 287.897C396.119 278.914 397.601 269.973 398.074 260.609C393.722 260.624 379.669 261.529 376.545 259.032C374.269 257.214 374.487 253.507 376.41 251.505C378.289 249.549 383.159 250.358 385.565 250.371L398.074 250.406C397.23 232.157 392.591 219.76 384.654 203.611C380.438 206.524 369.711 214.384 365.292 213.326C362.72 212.711 361.548 209.508 362.305 207.149C363.367 203.84 376.347 197.155 380.035 195.289C368.142 179.537 360.985 172.41 344.527 161.492C342.817 164.959 338.451 176.859 335.073 178.33C332.821 179.31 329.145 178.451 328.328 175.894C327.056 171.911 333.533 160.581 335.381 156.723C322.654 149.897 306.155 146.109 291.74 145.655C291.69 152.396 295.031 166.141 285.933 166.476C279.148 165.314 281.457 151.107 281.487 145.655C265.807 145.807 250.051 150.452 236.159 157.523C238.021 161.682 246.323 173.232 245.362 177.177C244.49 180.762 239.751 182.468 237.167 179.466C235.42 177.434 234.211 174.709 232.908 172.375L227.248 162.352C214.433 171.637 200.9 181.074 193.07 195.289C198.239 197.292 221.921 209.456 206.289 214.425C199.987 212.021 193.982 206.742 187.8 203.611C180.624 217.371 174.31 234.743 174.295 250.406L187.633 250.388C190.236 250.384 193.035 250.18 195.604 250.621C200.635 251.484 201.125 259.25 195.869 260.322C193.124 260.882 190.048 260.629 187.248 260.629L174.295 260.609Z"/>
	<path transform="scale(2 2)" d="M126.245 212.39C120.006 212.938 97.7983 185.161 95.927 181.337C94.627 178.68 97.3783 176.073 99.5163 175.034C105.084 174.4 110.54 183.481 113.935 187.298L124.216 198.831C127.749 202.867 134.265 208.646 126.245 212.39Z"/>
	<path transform="scale(2 2)" d="M273.552 295.876C254.998 284.819 247.904 262.528 261.959 244.597C264.385 241.502 267.263 238.738 269.902 235.822L310.6 191.424C314.109 187.632 317.375 182.612 322.076 180.262C334.142 179.255 324.264 199.424 322.548 204.934C316.853 223.22 310.628 241.327 304.531 259.481C306.959 259.696 309.561 259.504 312.006 259.499L327.179 259.447C329.8 259.42 336.151 258.55 338.248 260.577C342.789 264.968 331.203 274.675 328.522 277.722L272.498 341.661C270.266 344.267 267.933 348.168 265.02 349.974C261.617 352.085 257.37 349.333 257.998 345.451C259.96 333.32 269.529 308.748 273.552 295.876ZM311.438 205.209C307.57 210.161 303.039 214.69 298.791 219.322L276.691 243.598C273.759 246.874 270.036 249.893 267.849 253.747C253.677 278.719 284.657 287.765 285.071 291.748C285.392 294.842 277.158 317.84 275.591 322.601C277.256 320.77 278.911 318.935 280.517 317.051C293.027 302.198 308.428 283.838 322.076 269.97L305.179 269.995C286.314 270.092 291.478 266.414 296.546 251.472C298.132 246.796 311.68 206.838 311.438 205.209Z"/>
	<path transform="scale(2 2)" d="M124.819 240.252L93.7355 240.239C89.3367 240.237 84.0319 240.67 79.7316 240.215C72.3602 239.435 72.7652 230.681 80.3922 229.823L110.464 229.828C114.942 229.829 119.602 229.476 124.048 229.724C132.044 230.171 132.056 238.657 124.819 240.252Z"/>
</svg>
