<?xml version="1.0" encoding="utf-8" ?>
<svg xmlns="http://www.w3.org/2000/svg" xmlns:xlink="http://www.w3.org/1999/xlink" width="1023" height="1023" fill="white">
	<path transform="scale(2 2)" d="M256.086 95.2585C252.655 97.7996 249.39 100.618 246.034 103.262L157.412 174.462C154.073 177.102 144.612 187.065 141.34 178.823C139.044 173.036 153.144 164.739 157.274 161.417L239.577 95.2921C244.417 91.4185 249.474 85.929 255.381 83.7805C260.533 83.4764 266.196 90.4235 269.942 93.3184C280.928 101.807 292.452 110.459 302.846 119.643C303.507 97.8283 300.871 101.938 324.614 101.977C344.701 102.009 342.49 99.4364 342.472 120.525L342.466 151.304C349.008 156.007 355.04 161.389 361.266 166.494C364.656 169.274 374.263 174.261 369.858 179.803C365.074 185.821 355.313 174.763 351.598 171.747L266.174 103.211C262.873 100.522 259.614 97.6397 256.086 95.2585ZM313.262 112.001L313.262 127.757C319.569 132.938 326.221 137.878 332.317 143.281L332.317 112.001L313.262 112.001Z"/>
	<path transform="scale(2 2)" d="M211.632 195.577C212.651 192.034 215.013 189.305 216.913 186.222C228.629 167.215 241.934 147.449 254.458 128.808C256.726 125.432 258.973 120.342 262.773 118.514C265.445 118.442 266.924 119.725 268.395 121.895L268.395 166.518C272.216 166.536 290.197 165.748 292.612 167.169C299.579 171.269 290.013 181.258 287.314 185.297L254.93 233.105C252.176 237.218 249.329 244.335 244.149 245.703C236.102 244.457 238.737 235.185 238.74 228.609L238.754 200.713C230.126 200.743 214.597 204.329 211.632 195.577ZM258.19 142.163C254.989 146.626 252.114 151.263 249.095 155.846L237.858 172.719C234.006 178.589 229.682 184.276 226.325 190.449C231.165 190.432 240.848 189.872 245.175 190.698C250.93 191.797 249.291 199.883 249.286 204.114L249.27 222.695C258.539 209.448 272.773 190.857 280.499 176.985C263.121 177.036 258.117 181.638 258.164 163.35L258.224 147.564C258.238 146.025 258.59 143.614 258.19 142.163Z"/>
	<path transform="scale(2 2)" d="M332.317 231.147C332.318 224.348 331.795 178.577 332.668 176.261C333.26 174.687 334.574 174.135 336.035 173.542L336.282 173.521C345.602 172.796 342.471 188.784 342.472 195.204L342.466 231.147L372.347 231.126C377.49 231.121 384.741 230.489 389.658 231.685C401.618 234.596 402.255 256.015 393.177 255.077C386.838 254.422 389.912 244.073 388.263 241.982C385.533 240.754 379.302 241.441 376.125 241.471L313.566 241.472C310.082 241.498 303.459 242.497 300.565 240.03C297.694 237.584 298.791 232.026 302.677 231.357C305.888 230.805 309.611 231.14 312.875 231.139L332.317 231.147Z"/>
	<path transform="scale(2 2)" d="M169.542 231.147L169.53 197.74C169.519 190.656 166.627 177.047 174.191 174.77C182.522 175.18 179.56 190.117 179.559 196.337L179.551 231.147L197.553 231.132C200.857 231.132 204.526 230.826 207.782 231.396C211.83 232.104 213.675 236.995 210.496 239.992C207.938 242.402 202.607 241.482 199.409 241.482L137.414 241.471C113.891 241.398 127.991 245.853 122.017 252.99C119.961 255.445 116.314 255.113 114.13 253.057C110.454 249.599 113.418 238.655 116.863 235.205C122.819 229.24 132.905 231.137 140.52 231.137L169.542 231.147Z"/>
	<path transform="scale(2 2)" d="M256.703 316.369C248.737 318.349 250.868 303.153 250.867 299.163L250.87 279.507C250.872 273.124 248.399 262.203 254.062 258.798C256.684 258.477 259.065 259.049 260.381 261.596C261.12 263.027 261.277 311.735 260.601 313.35C259.852 315.141 258.361 315.66 256.703 316.369Z"/>
	<path transform="scale(2 2)" d="M393.636 359.914L377.108 359.93C356.224 359.95 355.522 356.257 355.508 338.317L355.489 300.887C355.485 297.725 355.252 294.375 355.704 291.245C357.694 288.126 390.558 263.936 393.636 263.044C397.069 263.481 400.191 266.932 402.78 268.982L413.729 277.585C417.25 280.341 429.026 288.774 431.394 291.836C432.483 302.17 431.402 317.561 431.403 328.468C431.404 352.009 435.423 359.93 409.149 359.93L393.636 359.914ZM393.636 275.024C383.909 281.536 374.986 289.375 365.731 296.531L365.723 332.043C365.721 337.862 365.415 343.859 365.731 349.658C374.964 350.062 384.38 349.654 393.636 349.658L408.533 349.676C425.343 349.678 420.979 347.004 420.98 330.41L420.978 297.242C420.978 297.005 420.973 296.768 420.966 296.531C416.968 293.028 398.043 277.041 393.636 275.024Z"/>
	<path transform="scale(2 2)" d="M119.446 359.914L102.514 359.933C90.305 360.03 81.4087 360.528 80.8005 344.67C80.5864 339.089 80.3284 292.918 81.2451 291.45C82.7624 289.02 113.963 264.012 118.608 263.044C122.265 263.533 144.118 281.794 148.208 284.886C151.59 287.443 156.544 289.633 156.668 294.31C156.98 306.075 156.719 317.916 156.717 329.688C156.716 339.303 159.954 355.317 147.803 359.102C142.745 360.678 125.654 359.929 119.446 359.914ZM118.608 275.024C111.199 279.737 98.0766 290.546 91.3043 296.531L91.2946 329.277C91.294 332.378 90.3366 346.916 92.119 348.961C93.0858 350.071 116.405 349.658 119.446 349.658C124.316 349.664 142.064 350.334 145.458 348.939C147.363 345.105 146.242 333.323 146.241 328.798L146.226 296.531C137.142 289.263 128.051 281.81 118.608 275.024Z"/>
	<path transform="scale(2 2)" d="M115.892 322.304C95.8623 325.401 105.292 313.359 112 304.124C114.046 301.308 115.654 296.976 119.446 296.531C131.62 294.788 120.793 309.566 119.446 312.194C123.353 312.219 134.307 310.513 133.298 317.236C132.978 319.367 119.763 335.957 117.371 337.641C115.905 338.142 114.848 338.338 113.417 337.624C106.079 333.963 113.242 327.275 115.666 322.731L115.892 322.304Z"/>
	<path transform="scale(2 2)" d="M391.435 322.304C387.213 322.301 380.342 323.873 378.799 318.444C377.986 315.586 389.551 297.518 393.636 296.531C402.63 297.709 398.05 306.939 395.647 312.194C411.081 310.324 409.135 315.625 401.878 326.142C399.058 330.23 395.923 337.919 390.425 338.54C380.489 336.228 388.671 327.043 391.435 322.304Z"/>
	<path transform="scale(2 2)" d="M256.703 427.354L238.439 427.384C218.708 427.455 218.065 424.661 218.052 407.107L218.051 389.309C218.053 379.355 217.67 369.242 218.012 359.304C218.206 353.667 233.76 344.312 238.448 340.743C242.967 337.3 250.668 329.758 256.086 328.534C261.167 329.339 294.012 356.362 294.125 358.103C294.212 359.434 294.25 360.773 294.258 362.107L294.267 399.463C294.259 422.503 296.908 427.419 273.353 427.379L256.703 427.354ZM256.086 340.186C247.861 345.623 235.651 355.021 228.042 361.344C227.709 380.027 228.043 398.778 228.042 417.469L256.703 417.469C260.58 417.475 281.805 417.965 283.809 417.122L283.893 416.837L283.649 417.017L283.57 416.653L283.768 416.686C284.75 415.347 284.351 367.823 284.284 362.148C281.383 359.775 257.809 340.727 256.086 340.186Z"/>
	<path transform="scale(2 2)" d="M254.062 390.176C250.838 390.067 240.035 390.94 241.858 383.946C242.677 380.803 252.304 366.901 256.086 364.749C267.466 363.685 259.187 376.15 256.703 379.949C259.865 380.043 270.878 378.428 269.463 385.067C268.946 387.492 258.213 404.08 255.381 406.013C252.697 406.459 248.967 405.444 248.146 402.487C247.155 398.918 252.236 393.16 254.062 390.176Z"/>
</svg>
