<?xml version="1.0" encoding="utf-8" ?>
<svg xmlns="http://www.w3.org/2000/svg" xmlns:xlink="http://www.w3.org/1999/xlink" width="1023" height="1023" fill="white">
	<path transform="scale(2 2)" d="M109.543 218.14C105.065 221.208 88.3475 235.451 84.1984 235.095C81.4003 234.856 79.5017 232.454 79.9881 229.673C80.8789 224.581 100.786 211.8 105.351 208.255L229.89 113.11C238.508 106.569 246.914 99.4755 255.88 93.4362C257.697 93.7423 287.71 117.549 291.033 120.071L407.924 209.387C413.2 213.386 435.641 226.223 430.093 233.468C426.023 238.783 406.614 220.954 402.037 217.216L402.046 301.185C402.053 304.582 402.291 308.171 402.021 311.549C401.68 315.798 396.762 318.065 393.459 314.979C390.674 312.375 392.035 304.349 392.037 300.918L392.049 210.172C386.288 205.898 380.699 201.333 375.051 196.907L276.017 121.201C269.372 116.172 262.766 110.906 255.88 106.217C250.076 110.353 244.488 114.803 238.793 119.088L119.493 210.172C119.309 216.006 119.483 221.905 119.484 227.745L119.493 262.13L119.493 389.253L304.848 389.253C312.205 389.252 319.657 388.975 327 389.253C329.267 391.541 331.112 395.606 327.925 398.034C324.48 400.659 281.532 399.258 274.374 399.257L120.75 399.278C116.318 399.314 112.537 400.369 109.543 396.473L109.543 218.14Z"/>
	<path transform="scale(2 2)" d="M272.883 190.989C266.481 191.697 239.07 191.846 236.369 188.851C234.895 184.278 235.234 156.184 236.18 153.874C236.77 152.432 237.818 151.772 239.226 151.247C245.951 151.169 252.683 151.225 259.408 151.228C263.467 151.231 275.057 149.379 276.079 155.006C277.122 160.749 276.521 181.641 276.271 187.985C275.306 189.325 274.358 190.227 272.883 190.989ZM245.747 161.464L245.747 181.05L266.156 181.05L266.156 161.464L245.747 161.464Z"/>
	<path transform="scale(2 2)" d="M248.797 216.095C250.635 216.125 252.476 216.098 254.314 216.095L264.932 216.095L264.932 226.446L258.712 226.446L248.797 226.446C249.136 223.018 248.785 219.539 248.797 216.095Z"/>
	<path transform="scale(2 2)" d="M310.759 249.18C290.593 250.933 287.827 221.377 305.877 219.772C323.588 215.529 331.462 244.172 310.759 249.18Z"/>
	<path transform="scale(2 2)" d="M215.631 226.446C220.895 225.173 226.081 222.077 230.965 219.772C231.912 220.93 234.434 227.68 234.995 229.403C229.962 231.894 224.758 234.072 219.704 236.535C218.713 236.252 216.157 227.904 215.631 226.446Z"/>
	<path transform="scale(2 2)" d="M196.093 267.89C174.74 269.982 169.298 239.169 191.896 234.548C213.522 232.525 218.393 263.149 196.093 267.89ZM194.393 244.573C185.301 245.891 185.066 257.469 194.393 257.854C202.77 256.364 202.824 245.037 194.393 244.573Z"/>
	<path transform="scale(2 2)" d="M311.802 363.729C282.311 364.809 289.152 341.438 283.058 324.609C278.552 312.162 270.541 310.693 270.043 294.56C269.419 274.3 285.33 255.872 305.877 255.279C328.507 249.97 352.074 278.746 345.847 302.659C343.672 311.009 337.376 316.903 334.525 324.888C329.167 339.896 334.899 359.701 311.802 363.729ZM305.877 265.335C290.346 267.296 278.685 280.637 280.71 296.513C282.108 307.48 292.591 314.499 295.032 330.533C296.535 340.402 295.721 356.341 311.802 353.433C322.466 350.25 321.365 340.247 322.675 331.225C325.167 314.067 333.738 309.985 336.044 300.023C340.269 281.778 324.861 262.693 305.877 265.335Z"/>
	<path transform="scale(2 2)" d="M178.626 307.697C155.89 308.694 153.023 277.891 174.693 274.329C196.018 271.852 201.703 303.173 178.626 307.697ZM176.01 284.288C167.399 286.155 168.23 297.78 177.024 297.445C185.649 295.977 185.06 284.402 176.01 284.288Z"/>
	<path transform="scale(2 2)" d="M185.395 350.734C163.001 351.888 158.995 320.454 182.172 317.328C203.431 315.674 207.286 346.623 185.395 350.734ZM182.172 327.522C173.524 330.058 175.384 341.027 184.314 340.448C193.243 338.712 191.263 327.081 182.172 327.522Z"/>
	<path transform="scale(2 2)" d="M396.446 416.904L382.752 416.924C358.104 416.951 357.298 408.86 357.285 385.295C357.272 360.729 358.381 364.658 375.646 347.754C381.164 342.351 386.101 335.156 394.14 333.814C401.837 333.237 406.139 339.531 411.063 344.359L425.822 358.773C430.849 363.774 432.604 366.779 432.614 373.898L432.592 388.084C432.607 408.605 429.184 416.888 407.354 416.911L396.446 416.904ZM394.14 344.214C391.891 346.028 389.861 348.203 387.795 350.224L376.682 361.184C364.357 373.386 367.23 370.384 367.294 387.652C367.33 397.142 365.246 406.357 377.733 406.738C383.559 406.916 389.435 406.746 395.266 406.745C408.489 406.775 422.373 411.13 422.314 393.962C422.299 389.559 422.847 372.555 421.756 369.582C420.9 367.251 414.443 362.182 412.537 360.286L401.307 349.254C399.194 347.217 397.312 344.242 394.14 344.214Z"/>
	<path transform="scale(2 2)" d="M201.241 362.039C203.567 359.699 205.568 357.023 207.892 354.657C209.833 355.218 219.91 364.879 221.946 366.903C219.6 369.31 217.262 371.562 215.631 374.538C213.804 374.273 203.406 363.959 201.241 362.039Z"/>
	<path transform="scale(2 2)" d="M396.446 377.713C387.13 377.772 388.109 363.637 394.14 362.039C396.936 362.172 398.558 362.97 400.199 365.376C400.544 369.702 401.563 375.891 396.446 377.713Z"/>
</svg>
