<?xml version="1.0" encoding="utf-8" ?>
<svg xmlns="http://www.w3.org/2000/svg" xmlns:xlink="http://www.w3.org/1999/xlink" width="1023" height="1023" fill="white">
	<path transform="scale(2 2)" d="M257.987 127.139C253.518 127.944 251.466 126.129 251.209 121.497C250.832 114.694 248.39 94.2116 254.525 91.2917C258.574 90.966 261.038 92.1003 261.395 96.2474C261.976 102.991 264.247 123.617 257.987 127.139Z"/>
	<path transform="scale(2 2)" d="M154.064 131.458C154.971 129.744 156.075 129.355 157.948 129.037C162.512 129.42 182.905 151.183 187.065 155.778C190.925 160.042 189.996 163.427 184.856 165.715C180.123 164.951 155.101 139.13 153.64 136.422C152.717 134.711 153.476 133.128 154.064 131.458Z"/>
	<path transform="scale(2 2)" d="M322.984 163.282C322.675 161.52 322.279 159.908 323.073 158.199C324.318 155.521 349.274 130.266 353.019 129.037C356.387 129.094 360.287 131.423 358.944 135.369C358.274 137.339 332.59 163.923 328.745 165.715C326.323 165.757 324.681 165.053 322.984 163.282Z"/>
	<path transform="scale(2 2)" d="M226.265 166.501C226.208 150.452 226.836 139.787 245.689 138.796C272.626 138.757 286.001 133.539 285.904 166.501C315.277 177.667 337.119 204.824 341.764 235.956C342.825 243.069 342.775 250.338 343.409 257.501C344.893 274.253 351.082 320.189 362.237 333.717C363.338 335.052 368.586 337.2 370.887 339.158C379.243 346.271 378.265 355.992 378.287 365.824C378.309 375.442 380.046 378.693 369.316 378.785C364.61 401.019 344.571 396.766 327.09 396.768L283.984 396.759C281.585 406.59 275.411 414.838 265.772 418.605C248.925 425.105 231.483 413.942 228.367 396.759L168.992 396.779C154.89 396.919 146.039 394.75 142.842 378.785C132.166 378.96 133.738 373.759 133.766 364.664C133.811 350.348 133.322 340.381 148.773 334.293C166.293 310.696 167.467 273.218 168.821 244.472C170.4 210.93 193.844 176.885 226.265 166.501ZM242.747 149.228C235.409 151.436 236.447 156.813 236.59 163.282C247.509 161.176 258.949 160.248 269.963 162.293C271.878 162.66 273.788 163.001 275.717 163.282C275.784 158.359 276.913 151.014 270.595 149.569C266.06 148.532 248.119 149.058 242.747 149.228ZM249.62 171.238C210.96 175.592 181.44 205.654 179.059 244.499C178.757 249.44 178.928 254.402 178.812 259.349C178.201 285.207 171.849 309.592 162.204 333.381L263.375 333.381L350.111 333.381C338.974 307.99 334.839 279.646 332.988 252.118C332.651 247.098 332.51 242.078 331.67 237.106C324.559 194.984 290.887 170.257 249.62 171.238ZM211.429 343.652L171.736 343.646C147.52 343.649 143.765 340.308 143.818 368.675L301.375 368.675L367.989 368.675C368.109 344.814 368.978 343.591 342.626 343.645L211.429 343.652ZM154.064 378.785L153.457 379.009C152.189 385.878 165.008 386.501 168.935 386.497L333.47 386.491C339.692 386.493 349.97 387.931 355.339 384.269C357.166 382.654 357.997 381.078 358.764 378.785L154.064 378.785ZM239.412 396.759C237.127 402.59 254.706 417.882 268.05 405.381C270.732 402.707 272.214 400.292 273.508 396.759C262.148 396.752 250.771 396.617 239.412 396.759Z"/>
	<path transform="scale(2 2)" d="M152.341 211.246C148.912 211.689 116.438 195.533 113.814 193.711C109.606 190.79 111.615 185.974 115.871 184.767C120.834 184.405 129.326 189.908 133.949 192.033L146.564 197.831C152.03 200.349 163.396 205.81 152.341 211.246Z"/>
	<path transform="scale(2 2)" d="M362.773 211.246C358.781 211.45 355.564 207.44 357.486 203.608C358.873 200.842 362.631 199.911 365.187 198.65L377.068 192.848C382.456 190.255 388.383 186.729 393.951 184.767C396.223 184.565 398.574 185.626 399.436 187.849C401.931 194.286 391.733 197.186 387.649 199.25L372.503 206.754C369.331 208.317 366.127 210.113 362.773 211.246Z"/>
	<path transform="scale(2 2)" d="M240.431 273.21C222.836 272.089 213.627 279.25 220.398 258.932L226.997 239.638C229.534 232.383 232.055 215.222 239.412 213.987C244.907 213.917 288.054 213.212 290.471 214.717C296.207 218.29 289.253 225.412 286.978 228.888C282.937 235.064 278.981 241.392 274.547 247.292C278.24 247.332 289.977 246.372 292.402 248.293C298.494 253.119 288.217 261.441 285.115 264.998C276.786 274.55 267.017 284.356 259.407 294.315C255.319 298.57 242.663 313.828 238.903 316.39C235.609 318.634 231.407 316.021 231.628 312.213C232.086 304.301 238.276 281.373 240.431 273.21ZM242.747 224.003C238.831 237.024 233.996 249.751 230.067 262.762C235.905 262.75 242.368 262.307 248.133 262.762C255.535 267.66 247.594 286.23 245.689 294.315C250.332 288.566 255.384 282.726 260.501 277.375C266.088 271.186 273.445 263.799 277.974 257.049C275.639 257.4 273.364 257.07 271.024 257.087C265.523 257.127 261.462 258.627 260.501 251.752C262.118 245.942 274.29 231.158 277.974 224.003L242.747 224.003Z"/>
	<path transform="scale(2 2)" d="M135.125 267.222L116.413 267.235C113.149 267.253 105.916 268.441 103.257 266.064C101.162 264.191 101.091 260.188 103.114 258.242C105.279 256.161 114.225 257.031 117.356 257.049L135.256 257.033C138.759 257.008 142.576 256.637 146.026 257.171C150.032 257.791 151.981 262.659 148.868 265.656C146.177 268.247 138.826 267.247 135.125 267.222Z"/>
	<path transform="scale(2 2)" d="M406.062 267.222L380.332 267.213C375.774 267.231 370.7 267.703 366.196 267.082C358.006 265.953 359.017 257.737 366.593 257.049L394.51 257.047C399.142 257.043 403.871 256.773 408.487 257.049C412.5 260.987 411.961 266.398 406.062 267.222Z"/>
</svg>
